<svg width="39" height="44" viewBox="0 0 39 44" fill="none" xmlns="http://www.w3.org/2000/svg">
<path d="M19.1705 35V8.81818H28.017C30.071 8.81818 31.75 9.18892 33.054 9.9304C34.3665 10.6634 35.3381 11.6562 35.9688 12.9091C36.5994 14.1619 36.9148 15.5597 36.9148 17.1023C36.9148 18.6449 36.5994 20.0469 35.9688 21.3082C35.3466 22.5696 34.3835 23.5753 33.0795 24.3253C31.7756 25.0668 30.1051 25.4375 28.0682 25.4375H21.7273V22.625H27.9659C29.3722 22.625 30.5014 22.3821 31.3537 21.8963C32.206 21.4105 32.8239 20.7543 33.2074 19.9276C33.5994 19.0923 33.7955 18.1506 33.7955 17.1023C33.7955 16.054 33.5994 15.1165 33.2074 14.2898C32.8239 13.4631 32.2017 12.8153 31.3409 12.3466C30.4801 11.8693 29.3381 11.6307 27.9148 11.6307H22.3409V35H19.1705Z" fill="black"/>
<path d="M19.8295 35V8.81818H10.983C8.92898 8.81818 7.25 9.18892 5.94602 9.9304C4.63352 10.6634 3.66193 11.6562 3.03125 12.9091C2.40057 14.1619 2.08523 15.5597 2.08523 17.1023C2.08523 18.6449 2.40057 20.0469 3.03125 21.3082C3.65341 22.5696 4.61648 23.5753 5.92045 24.3253C7.22443 25.0668 8.89489 25.4375 10.9318 25.4375H17.2727V22.625H11.0341C9.62784 22.625 8.49858 22.3821 7.64631 21.8963C6.79403 21.4105 6.17614 20.7543 5.79261 19.9276C5.40057 19.0923 5.20455 18.1506 5.20455 17.1023C5.20455 16.054 5.40057 15.1165 5.79261 14.2898C6.17614 13.4631 6.7983 12.8153 7.65909 12.3466C8.51989 11.8693 9.66193 11.6307 11.0852 11.6307H16.6591V35H19.8295Z" fill="black"/>
<rect x="4" y="32" width="31" height="3" fill="#004B19"/>
</svg>
