<svg width="168" height="44" viewBox="0 0 168 44" fill="none" xmlns="http://www.w3.org/2000/svg">
<path d="M19.1705 35V8.81818H28.017C30.071 8.81818 31.75 9.18892 33.054 9.9304C34.3665 10.6634 35.3381 11.6562 35.9688 12.9091C36.5994 14.1619 36.9148 15.5597 36.9148 17.1023C36.9148 18.6449 36.5994 20.0469 35.9688 21.3082C35.3466 22.5696 34.3835 23.5753 33.0795 24.3253C31.7756 25.0668 30.1051 25.4375 28.0682 25.4375H21.7273V22.625H27.9659C29.3722 22.625 30.5014 22.3821 31.3537 21.8963C32.206 21.4105 32.8239 20.7543 33.2074 19.9276C33.5994 19.0923 33.7955 18.1506 33.7955 17.1023C33.7955 16.054 33.5994 15.1165 33.2074 14.2898C32.8239 13.4631 32.2017 12.8153 31.3409 12.3466C30.4801 11.8693 29.3381 11.6307 27.9148 11.6307H22.3409V35H19.1705Z" fill="black"/>
<path d="M19.8295 35V8.81818H10.983C8.92898 8.81818 7.25 9.18892 5.94602 9.9304C4.63352 10.6634 3.66193 11.6562 3.03125 12.9091C2.40057 14.1619 2.08523 15.5597 2.08523 17.1023C2.08523 18.6449 2.40057 20.0469 3.03125 21.3082C3.65341 22.5696 4.61648 23.5753 5.92045 24.3253C7.22443 25.0668 8.89489 25.4375 10.9318 25.4375H17.2727V22.625H11.0341C9.62784 22.625 8.49858 22.3821 7.64631 21.8963C6.79403 21.4105 6.17614 20.7543 5.79261 19.9276C5.40057 19.0923 5.20455 18.1506 5.20455 17.1023C5.20455 16.054 5.40057 15.1165 5.79261 14.2898C6.17614 13.4631 6.7983 12.8153 7.65909 12.3466C8.51989 11.8693 9.66193 11.6307 11.0852 11.6307H16.6591V35H19.8295Z" fill="black"/>
<rect x="4" y="32" width="31" height="3" fill="url(#paint0_linear_2_3)"/>
<path d="M45.8295 33H43.6136L50.0227 15.5455H52.2045L58.6136 33H56.3977L51.1818 18.3068H51.0455L45.8295 33ZM46.6477 26.1818H55.5795V28.0568H46.6477V26.1818ZM63.071 15.5455V33H61.0597V15.5455H63.071ZM66.755 33V19.9091H68.6982V21.9545H68.8686C69.1413 21.2557 69.5817 20.7131 70.1896 20.3267C70.7976 19.9347 71.5277 19.7386 72.38 19.7386C73.2436 19.7386 73.9624 19.9347 74.5362 20.3267C75.1158 20.7131 75.5675 21.2557 75.8913 21.9545H76.0277C76.3629 21.2784 76.8658 20.7415 77.5362 20.3438C78.2067 19.9403 79.0107 19.7386 79.9482 19.7386C81.1186 19.7386 82.076 20.1051 82.8203 20.8381C83.5646 21.5653 83.9368 22.6989 83.9368 24.2386V33H81.9254V24.2386C81.9254 23.2727 81.6612 22.5824 81.1328 22.1676C80.6044 21.7528 79.9822 21.5455 79.2663 21.5455C78.3459 21.5455 77.6328 21.8239 77.1271 22.3807C76.6214 22.9318 76.3686 23.6307 76.3686 24.4773V33H74.3232V24.0341C74.3232 23.2898 74.0817 22.6903 73.5987 22.2358C73.1158 21.7756 72.4936 21.5455 71.7322 21.5455C71.2095 21.5455 70.7209 21.6847 70.2663 21.9631C69.8175 22.2415 69.4538 22.6278 69.1754 23.1222C68.9027 23.6108 68.7663 24.1761 68.7663 24.8182V33H66.755ZM91.4666 33.3068C90.6371 33.3068 89.8842 33.1506 89.2081 32.8381C88.532 32.5199 87.995 32.0625 87.5973 31.4659C87.1996 30.8636 87.0007 30.1364 87.0007 29.2841C87.0007 28.5341 87.1484 27.9261 87.4439 27.4602C87.7393 26.9886 88.1342 26.6193 88.6286 26.3523C89.1229 26.0852 89.6683 25.8864 90.2649 25.7557C90.8672 25.6193 91.4723 25.5114 92.0803 25.4318C92.8757 25.3295 93.5206 25.2528 94.0149 25.2017C94.5149 25.1449 94.8786 25.0511 95.1058 24.9205C95.3388 24.7898 95.4553 24.5625 95.4553 24.2386V24.1705C95.4553 23.3295 95.2251 22.6761 94.7649 22.2102C94.3104 21.7443 93.62 21.5114 92.6939 21.5114C91.7337 21.5114 90.9808 21.7216 90.4354 22.142C89.8899 22.5625 89.5064 23.0114 89.2848 23.4886L87.3757 22.8068C87.7166 22.0114 88.1712 21.392 88.7393 20.9489C89.3132 20.5 89.9382 20.1875 90.6143 20.0114C91.2962 19.8295 91.9666 19.7386 92.6257 19.7386C93.0462 19.7386 93.5291 19.7898 94.0746 19.892C94.6257 19.9886 95.157 20.1903 95.6683 20.4972C96.1854 20.804 96.6143 21.267 96.9553 21.8864C97.2962 22.5057 97.4666 23.3352 97.4666 24.375V33H95.4553V31.2273H95.353C95.2166 31.5114 94.9893 31.8153 94.6712 32.1392C94.353 32.4631 93.9297 32.7386 93.4013 32.9659C92.8729 33.1932 92.228 33.3068 91.4666 33.3068ZM91.7734 31.5C92.5689 31.5 93.2393 31.3438 93.7848 31.0312C94.3359 30.7188 94.7507 30.3153 95.0291 29.821C95.3132 29.3267 95.4553 28.8068 95.4553 28.2614V26.4205C95.37 26.5227 95.1825 26.6165 94.8928 26.7017C94.6087 26.7812 94.2791 26.8523 93.9041 26.9148C93.5348 26.9716 93.174 27.0227 92.8217 27.0682C92.4751 27.108 92.1939 27.142 91.978 27.1705C91.4553 27.2386 90.9666 27.3494 90.5121 27.5028C90.0632 27.6506 89.6996 27.875 89.4212 28.1761C89.1484 28.4716 89.0121 28.875 89.0121 29.3864C89.0121 30.0852 89.2706 30.6136 89.7876 30.9716C90.3104 31.3239 90.9723 31.5 91.7734 31.5ZM106.456 33.2727C105.229 33.2727 104.172 32.983 103.286 32.4034C102.399 31.8239 101.717 31.0256 101.24 30.0085C100.763 28.9915 100.524 27.8295 100.524 26.5227C100.524 25.1932 100.768 24.0199 101.257 23.0028C101.751 21.9801 102.439 21.1818 103.32 20.608C104.206 20.0284 105.24 19.7386 106.422 19.7386C107.342 19.7386 108.172 19.9091 108.911 20.25C109.649 20.5909 110.254 21.0682 110.726 21.6818C111.197 22.2955 111.49 23.0114 111.604 23.8295H109.592C109.439 23.233 109.098 22.7045 108.57 22.2443C108.047 21.7784 107.342 21.5455 106.456 21.5455C105.672 21.5455 104.984 21.75 104.393 22.1591C103.808 22.5625 103.351 23.1335 103.021 23.8722C102.697 24.6051 102.536 25.4659 102.536 26.4545C102.536 27.4659 102.695 28.3466 103.013 29.0966C103.337 29.8466 103.791 30.429 104.376 30.8438C104.967 31.2585 105.661 31.4659 106.456 31.4659C106.979 31.4659 107.453 31.375 107.879 31.1932C108.305 31.0114 108.666 30.75 108.962 30.4091C109.257 30.0682 109.467 29.6591 109.592 29.1818H111.604C111.49 29.9545 111.209 30.6506 110.76 31.2699C110.317 31.8835 109.729 32.3722 108.996 32.7358C108.268 33.0938 107.422 33.2727 106.456 33.2727ZM120.033 33.2727C118.771 33.2727 117.683 32.9943 116.768 32.4375C115.859 31.875 115.158 31.0909 114.663 30.0852C114.175 29.0739 113.93 27.8977 113.93 26.5568C113.93 25.2159 114.175 24.0341 114.663 23.0114C115.158 21.983 115.845 21.1818 116.726 20.608C117.612 20.0284 118.646 19.7386 119.828 19.7386C120.51 19.7386 121.183 19.8523 121.848 20.0795C122.513 20.3068 123.118 20.6761 123.663 21.1875C124.209 21.6932 124.643 22.3636 124.967 23.1989C125.291 24.0341 125.453 25.0625 125.453 26.2841V27.1364H115.362V25.3977H123.408C123.408 24.6591 123.26 24 122.964 23.4205C122.675 22.8409 122.26 22.3835 121.72 22.0483C121.186 21.7131 120.555 21.5455 119.828 21.5455C119.027 21.5455 118.334 21.7443 117.749 22.142C117.169 22.5341 116.723 23.0455 116.411 23.6761C116.098 24.3068 115.942 24.983 115.942 25.7045V26.8636C115.942 27.8523 116.112 28.6903 116.453 29.3778C116.8 30.0597 117.28 30.5795 117.893 30.9375C118.507 31.2898 119.22 31.4659 120.033 31.4659C120.561 31.4659 121.038 31.392 121.464 31.2443C121.896 31.0909 122.268 30.8636 122.581 30.5625C122.893 30.2557 123.135 29.875 123.305 29.4205L125.249 29.9659C125.044 30.625 124.7 31.2045 124.217 31.7045C123.734 32.1989 123.138 32.5852 122.428 32.8636C121.717 33.1364 120.919 33.2727 120.033 33.2727ZM130.524 25.125V33H128.513V19.9091H130.456V21.9545H130.626C130.933 21.2898 131.399 20.7557 132.024 20.3523C132.649 19.9432 133.456 19.7386 134.445 19.7386C135.331 19.7386 136.107 19.9205 136.771 20.2841C137.436 20.642 137.953 21.1875 138.322 21.9205C138.692 22.6477 138.876 23.5682 138.876 24.6818V33H136.865V24.8182C136.865 23.7898 136.598 22.9886 136.064 22.4148C135.53 21.8352 134.797 21.5455 133.865 21.5455C133.223 21.5455 132.649 21.6847 132.143 21.9631C131.643 22.2415 131.249 22.6477 130.959 23.1818C130.669 23.7159 130.524 24.3636 130.524 25.125ZM148.04 33.2727C146.779 33.2727 145.691 32.9943 144.776 32.4375C143.867 31.875 143.165 31.0909 142.671 30.0852C142.183 29.0739 141.938 27.8977 141.938 26.5568C141.938 25.2159 142.183 24.0341 142.671 23.0114C143.165 21.983 143.853 21.1818 144.734 20.608C145.62 20.0284 146.654 19.7386 147.836 19.7386C148.518 19.7386 149.191 19.8523 149.856 20.0795C150.521 20.3068 151.126 20.6761 151.671 21.1875C152.217 21.6932 152.651 22.3636 152.975 23.1989C153.299 24.0341 153.461 25.0625 153.461 26.2841V27.1364H143.37V25.3977H151.415C151.415 24.6591 151.268 24 150.972 23.4205C150.683 22.8409 150.268 22.3835 149.728 22.0483C149.194 21.7131 148.563 21.5455 147.836 21.5455C147.035 21.5455 146.342 21.7443 145.756 22.142C145.177 22.5341 144.731 23.0455 144.418 23.6761C144.106 24.3068 143.95 24.983 143.95 25.7045V26.8636C143.95 27.8523 144.12 28.6903 144.461 29.3778C144.808 30.0597 145.288 30.5795 145.901 30.9375C146.515 31.2898 147.228 31.4659 148.04 31.4659C148.569 31.4659 149.046 31.392 149.472 31.2443C149.904 31.0909 150.276 30.8636 150.589 30.5625C150.901 30.2557 151.143 29.875 151.313 29.4205L153.256 29.9659C153.052 30.625 152.708 31.2045 152.225 31.7045C151.742 32.1989 151.146 32.5852 150.435 32.8636C149.725 33.1364 148.927 33.2727 148.04 33.2727ZM165.793 22.8409L163.987 23.3523C163.873 23.0511 163.705 22.7585 163.484 22.4744C163.268 22.1847 162.972 21.946 162.597 21.7585C162.222 21.571 161.742 21.4773 161.157 21.4773C160.356 21.4773 159.688 21.6619 159.154 22.0312C158.626 22.3949 158.362 22.858 158.362 23.4205C158.362 23.9205 158.543 24.3153 158.907 24.6051C159.271 24.8949 159.839 25.1364 160.612 25.3295L162.555 25.8068C163.725 26.0909 164.597 26.5256 165.171 27.1108C165.745 27.6903 166.032 28.4375 166.032 29.3523C166.032 30.1023 165.816 30.7727 165.384 31.3636C164.958 31.9545 164.362 32.4205 163.594 32.7614C162.827 33.1023 161.935 33.2727 160.918 33.2727C159.583 33.2727 158.478 32.983 157.603 32.4034C156.728 31.8239 156.174 30.9773 155.941 29.8636L157.85 29.3864C158.032 30.0909 158.376 30.6193 158.881 30.9716C159.393 31.3239 160.06 31.5 160.884 31.5C161.822 31.5 162.566 31.3011 163.117 30.9034C163.674 30.5 163.952 30.017 163.952 29.4545C163.952 29 163.793 28.6193 163.475 28.3125C163.157 28 162.668 27.767 162.009 27.6136L159.827 27.1023C158.629 26.8182 157.748 26.3778 157.185 25.7812C156.629 25.179 156.35 24.4261 156.35 23.5227C156.35 22.7841 156.558 22.1307 156.972 21.5625C157.393 20.9943 157.964 20.5483 158.685 20.2244C159.413 19.9006 160.237 19.7386 161.157 19.7386C162.452 19.7386 163.469 20.0227 164.208 20.5909C164.952 21.1591 165.481 21.9091 165.793 22.8409Z" fill="url(#paint1_linear_2_3)"/>
<defs>
<linearGradient id="paint0_linear_2_3" x1="19.5" y1="32" x2="19.5" y2="35" gradientUnits="userSpaceOnUse">
<stop/>
<stop offset="1" stop-color="#678779"/>
</linearGradient>
<linearGradient id="paint1_linear_2_3" x1="105.5" y1="10" x2="105.5" y2="39" gradientUnits="userSpaceOnUse">
<stop offset="0.630208"/>
<stop offset="1" stop-opacity="0"/>
</linearGradient>
</defs>
</svg>
